<svg width="18" height="12" viewBox="0 0 18 12" fill="none" xmlns="http://www.w3.org/2000/svg">
<path d="M15.8482 7.83984H10.9522C10.5369 7.83984 10.2002 8.1763 10.2002 8.59134C10.2002 9.00639 10.5369 9.34284 10.9522 9.34284H15.8482C16.2635 9.34284 16.6002 9.00639 16.6002 8.59134C16.6002 8.1763 16.2635 7.83984 15.8482 7.83984Z" fill="#272D55"/>
<path d="M14.2002 6.33829V10.8483C14.1937 11.054 14.1058 11.2488 13.9558 11.3898C13.8058 11.5308 13.606 11.6065 13.4002 11.6003C13.1944 11.6065 12.9946 11.5308 12.8446 11.3898C12.6946 11.2488 12.6067 11.054 12.6002 10.8483V6.33829C12.6067 6.13254 12.6946 5.93779 12.8446 5.79679C12.9946 5.6558 13.1944 5.58009 13.4002 5.58629C13.606 5.58009 13.8058 5.6558 13.9558 5.79679C14.1058 5.93779 14.1937 6.13254 14.2002 6.33829V6.33829Z" fill="#272D55"/>
<path d="M8.94136 8.91824H2.9998C2.17281 8.91824 1.5 8.24543 1.5 7.41844V2.39824C1.5 1.57125 2.17281 0.898438 2.9998 0.898438H15.0004C15.8274 0.898438 16.5002 1.57125 16.5002 2.39824V6.90377C16.2513 6.77841 15.9716 6.70964 15.679 6.70964H15.3888V5.80114C15.3888 5.02013 14.5509 4.40834 13.4812 4.40834C12.4115 4.40834 11.5736 5.02013 11.5736 5.80114V6.70964H10.7209C9.71669 6.70964 8.8997 7.52622 8.8997 8.52994C8.8997 8.66162 8.91384 8.7917 8.94136 8.91824Z" fill="#272C55"/>
<path d="M8.40236 8.41824C8.46091 7.19054 9.47849 6.20964 10.7209 6.20964H11.0736V5.80114C11.0736 4.73976 12.1311 3.90834 13.4812 3.90834C14.8313 3.90834 15.8888 4.73976 15.8888 5.80114V6.21895C15.9261 6.22228 15.9633 6.2265 16.0002 6.23158V2.39824C16.0002 1.84695 15.5517 1.39844 15.0004 1.39844H2.9998C2.44851 1.39844 2 1.84695 2 2.39824V7.41844C2 7.96973 2.44851 8.41824 2.9998 8.41824H8.40236ZM9.74273 9.41824H2.9998C1.89711 9.41824 1 8.52113 1 7.41844V2.39824C1 1.29555 1.89711 0.398438 2.9998 0.398438H15.0004C16.1031 0.398438 17.0002 1.29555 17.0002 2.39824V7.41844C17.0002 7.62899 16.9676 7.83645 16.9033 8.03507C16.7003 7.53366 16.2205 7.20964 15.679 7.20964H14.8888V5.80114C14.8888 5.30885 14.2573 4.90834 13.4812 4.90834C12.7051 4.90834 12.0736 5.30885 12.0736 5.80114V7.20964H10.7209C9.99239 7.20964 9.3997 7.80192 9.3997 8.52994C9.3997 8.85851 9.52099 9.17339 9.74122 9.41657L9.74273 9.41824Z" fill="#272C55"/>
<path d="M1.40039 3.40625H16.6004" stroke="#AECDFC" stroke-linecap="round"/>
<path d="M6.2002 0.773438V9.04144" stroke="#AECDFC" stroke-linecap="round"/>
<path d="M11.8008 0.773438V5.28344" stroke="#AECDFC" stroke-linecap="round"/>
<path d="M1.40039 7.16406H9.40039" stroke="#AECDFC" stroke-linecap="round"/>
</svg>
