<svg xmlns="http://www.w3.org/2000/svg" width="32.8" height="41" viewBox="0 0 32.8 41">
  <g id="Group_11063" data-name="Group 11063" transform="translate(-10 -441)">
    <path id="Path_15398" data-name="Path 15398" d="M30.65,6.1H28.231A6.15,6.15,0,0,0,22.45,2h-4.1a6.15,6.15,0,0,0-5.781,4.1H10.15A6.15,6.15,0,0,0,4,12.25v24.6A6.15,6.15,0,0,0,10.15,43h20.5a6.15,6.15,0,0,0,6.15-6.15V12.25A6.15,6.15,0,0,0,30.65,6.1ZM16.3,8.15A2.05,2.05,0,0,1,18.35,6.1h4.1A2.05,2.05,0,0,1,24.5,8.15V10.2H16.3Zm16.4,28.7a2.05,2.05,0,0,1-2.05,2.05H10.15A2.05,2.05,0,0,1,8.1,36.85V12.25a2.05,2.05,0,0,1,2.05-2.05H12.2v2.05a2.05,2.05,0,0,0,2.05,2.05h12.3a2.05,2.05,0,0,0,2.05-2.05V10.2h2.05a2.05,2.05,0,0,1,2.05,2.05Z" transform="translate(6 439)"/>
    <text id="_" data-name="?" transform="translate(21 473)" font-size="20" font-family="Poppins-Bold, Poppins" font-weight="700"><tspan x="0" y="0">?</tspan></text>
  </g>
</svg>
