<svg width="10" height="10" viewBox="0 0 10 10" fill="none" xmlns="http://www.w3.org/2000/svg">
<rect width="10" height="10" rx="2" fill="#AECDFC"/>
<path d="M2.53033 3.46967C2.23744 3.17678 1.76256 3.17678 1.46967 3.46967C1.17678 3.76256 1.17678 4.23744 1.46967 4.53033L2.53033 3.46967ZM5 7L4.46967 7.53033C4.76256 7.82322 5.23744 7.82322 5.53033 7.53033L5 7ZM8.53033 4.53033C8.82322 4.23744 8.82322 3.76256 8.53033 3.46967C8.23744 3.17678 7.76256 3.17678 7.46967 3.46967L8.53033 4.53033ZM1.46967 4.53033L4.46967 7.53033L5.53033 6.46967L2.53033 3.46967L1.46967 4.53033ZM5.53033 7.53033L8.53033 4.53033L7.46967 3.46967L4.46967 6.46967L5.53033 7.53033Z" fill="#272D55"/>
</svg>
