<svg width="14" height="18" viewBox="0 0 14 18" fill="none" xmlns="http://www.w3.org/2000/svg">
<path d="M9.65472 16.5714H4.49584C3.6694 16.5714 3.25468 16.2987 2.98823 14.6854L1.94434 4.49609H12.0611L11.1119 14.6877C10.8479 16.2861 10.4994 16.5714 9.65472 16.5714Z" fill="#272D55"/>
<path d="M2.49831 4.99609L3.48422 14.6194C3.52806 14.8855 3.64775 15.5739 3.87845 15.8694C3.93355 15.94 4.03613 16.0714 4.49597 16.0714H9.65485C10.0959 16.0714 10.183 15.955 10.235 15.8855C10.4296 15.6255 10.5451 15.0492 10.6158 14.6237L11.5125 4.99609H2.49831ZM1.39062 3.99609H12.6099L11.6082 14.7516C11.3578 16.2805 10.9826 17.0714 9.65485 17.0714H4.49597C3.1682 17.0714 2.74295 16.2805 2.49253 14.7516L1.39062 3.99609Z" fill="#272D55"/>
<path d="M7.00031 1.28279C7.75166 1.28279 8.38755 1.66455 8.58789 2.18555L5.41231 2.18555C5.6127 1.66455 6.24875 1.28279 7.00031 1.28279Z" fill="#272D55"/>
<path d="M7.81291 1.83516C7.58834 1.70895 7.30465 1.6324 7.00068 1.6324C6.6966 1.6324 6.41281 1.70895 6.18817 1.83516L7.81291 1.83516ZM9.00391 2.53516L4.99701 2.53516C4.99701 1.64995 5.89404 0.932396 7.00068 0.932396C8.10688 0.932396 9.00391 1.64995 9.00391 2.53516Z" fill="#272D55"/>
<path d="M13.0105 3.39453H0.989477C0.547096 3.39453 0.188477 3.75315 0.188477 4.19553V4.19653C0.188477 4.63891 0.547096 4.99753 0.989477 4.99753H13.0105C13.4529 4.99753 13.8115 4.63891 13.8115 4.19653V4.19553C13.8115 3.75315 13.4529 3.39453 13.0105 3.39453Z" fill="#AECDFC"/>
<path d="M13.0101 3.74414H0.989086C0.740006 3.74414 0.538086 3.94606 0.538086 4.19514V4.19614C0.538086 4.44522 0.740006 4.64714 0.989086 4.64714H13.0101C13.2592 4.64714 13.4611 4.44522 13.4611 4.19614V4.19514C13.4611 3.94606 13.2592 3.74414 13.0101 3.74414Z" stroke="#AECDFC" stroke-width="0.7"/>
</svg>
