<svg width="12" height="15" viewBox="0 0 12 15" fill="none" xmlns="http://www.w3.org/2000/svg">
<path d="M8.95112 2H1.04888C0.469599 2 0 2.41209 0 2.92042V14.0796C0 14.5879 0.469599 15 1.04888 15H8.95112C9.5304 15 10 14.5879 10 14.0796V2.92042C10 2.41209 9.5304 2 8.95112 2Z" fill="#272D55"/>
<path d="M3.42518 0.502748L10.9591 0.502748C11.2347 0.502748 11.459 0.726997 11.459 1.00265L11.459 13.1265C11.459 13.3053 11.3647 13.4624 11.2233 13.5508L11.2233 2.19425C11.2233 1.3672 10.5504 0.694347 9.72338 0.694347L3.03192 0.694347C3.12352 0.577763 3.26576 0.502748 3.42518 0.502748Z" fill="#272D55"/>
<path d="M3.42518 0.00129986L10.9591 0.00129986C11.5104 0.00129986 11.959 0.44985 11.959 1.0012L11.959 13.1251C11.959 13.6765 11.5104 14.125 10.9591 14.125H10.7233L10.7233 2.1928C10.7233 1.64145 10.2747 1.1929 9.72338 1.1929L2.42528 1.1929V1.00119C2.42528 0.44985 2.87383 0.00129986 3.42518 0.00129986Z" fill="#272D55"/>
<path d="M7.648 8.25391H2.752C2.33668 8.25391 2 8.59036 2 9.00541C2 9.42045 2.33668 9.75691 2.752 9.75691H7.648C8.06332 9.75691 8.4 9.42045 8.4 9.00541C8.4 8.59036 8.06332 8.25391 7.648 8.25391Z" fill="#AECDFC"/>
<path d="M6 6.75235V11.2624C5.99347 11.4681 5.90556 11.6629 5.75557 11.8038C5.60557 11.9448 5.40576 12.0205 5.2 12.0144C4.99424 12.0205 4.79443 11.9448 4.64443 11.8038C4.49444 11.6629 4.40653 11.4681 4.4 11.2624V6.75235C4.40653 6.5466 4.49444 6.35185 4.64443 6.21086C4.79443 6.06986 4.99424 5.99416 5.2 6.00035C5.40576 5.99416 5.60557 6.06986 5.75557 6.21086C5.90556 6.35185 5.99347 6.5466 6 6.75235V6.75235Z" fill="#AECDFC"/>
</svg>
