<svg width="15" height="18" viewBox="0 0 15 18" fill="none" xmlns="http://www.w3.org/2000/svg">
<path d="M9.39661 16.5619H2.60431C1.77731 16.5619 1.10449 15.8891 1.10449 15.0621V2.9373C1.10449 2.11031 1.77731 1.4375 2.60431 1.4375H9.39661C10.2236 1.4375 10.8964 2.11031 10.8964 2.9373V7.4998H5.00009C4.17303 7.4998 3.50018 8.17265 3.50018 8.9997V15C3.50018 15.827 4.17303 16.4999 5.00009 16.4999H9.82434C9.68759 16.5405 9.54379 16.5619 9.39661 16.5619Z" fill="#272D55"/>
<path d="M3.306 16.0619C3.1123 15.754 3.00018 15.3898 3.00018 15V8.9997C3.00018 7.89695 3.89734 6.9998 5.00009 6.9998H10.3964V2.9373C10.3964 2.38601 9.94791 1.9375 9.39661 1.9375H2.60431C2.05301 1.9375 1.60449 2.38601 1.60449 2.9373V15.0621C1.60449 15.6134 2.05301 16.0619 2.60431 16.0619H3.306ZM9.39661 17.0619H2.60431C1.50162 17.0619 0.604492 16.1648 0.604492 15.0621V2.9373C0.604492 1.83461 1.50162 0.9375 2.60431 0.9375H9.39661C10.4993 0.9375 11.3964 1.83461 11.3964 2.9373V7.9998H5.00009C4.44873 7.9998 4.00018 8.44835 4.00018 8.9997V15C4.00018 15.5513 4.44873 15.9999 5.00009 15.9999H11.1632C10.8144 16.6555 10.1371 17.0619 9.39661 17.0619Z" fill="#272D55"/>
<path d="M12.6006 8.69922H5.60059C5.0483 8.69922 4.60059 9.14693 4.60059 9.69922V14.2992C4.60059 14.8515 5.0483 15.2992 5.60059 15.2992H12.6006C13.1529 15.2992 13.6006 14.8515 13.6006 14.2992V9.69922C13.6006 9.14693 13.1529 8.69922 12.6006 8.69922Z" fill="#AECDFC"/>
<path d="M12.6006 9.19922H5.60059C5.32444 9.19922 5.10059 9.42308 5.10059 9.69922V14.2992C5.10059 14.5754 5.32444 14.7992 5.60059 14.7992H12.6006C12.8767 14.7992 13.1006 14.5754 13.1006 14.2992V9.69922C13.1006 9.42308 12.8767 9.19922 12.6006 9.19922Z" stroke="#AECDFC"/>
<path d="M5.31259 12.06C5.31259 13.052 5.84459 13.568 6.74459 13.568C7.38059 13.568 7.88459 13.156 7.88459 12.74C7.88459 12.58 7.72459 12.488 7.56459 12.488C7.24859 12.488 7.26059 13.04 6.74459 13.04C6.17659 13.04 5.96859 12.584 5.96859 12.06C5.96859 11.436 6.30859 11.08 6.72059 11.08C7.32059 11.08 7.20859 11.6 7.58859 11.6C7.78459 11.6 7.88459 11.488 7.88459 11.304C7.88459 11.024 7.47259 10.552 6.72059 10.552C5.79259 10.552 5.31259 11.248 5.31259 12.06ZM9.2513 11.708C9.0433 11.66 8.8033 11.596 8.8033 11.396C8.8033 11.196 8.9713 11.056 9.2753 11.056C9.8873 11.056 9.8313 11.484 10.1353 11.484C10.2953 11.484 10.4353 11.388 10.4353 11.224C10.4353 10.84 9.8313 10.552 9.3193 10.552C8.7633 10.552 8.1713 10.792 8.1713 11.432C8.1713 11.74 8.2793 12.068 8.8753 12.22L9.6153 12.408C9.8393 12.464 9.8953 12.592 9.8953 12.708C9.8953 12.9 9.7073 13.088 9.3673 13.088C8.7033 13.088 8.7953 12.568 8.4393 12.568C8.2793 12.568 8.1633 12.68 8.1633 12.84C8.1633 13.152 8.5353 13.568 9.3673 13.568C10.1593 13.568 10.5513 13.18 10.5513 12.66C10.5513 12.324 10.3993 11.968 9.7993 11.832L9.2513 11.708ZM13.2416 11.052C13.2696 10.976 13.2816 10.912 13.2816 10.86C13.2816 10.64 13.1136 10.568 12.9496 10.568C12.7976 10.568 12.7016 10.66 12.6416 10.856L12.0256 12.816H12.0176L11.4256 10.856C11.3656 10.66 11.2696 10.568 11.0936 10.568C10.9296 10.568 10.7616 10.64 10.7616 10.86C10.7616 10.912 10.7736 10.976 10.8016 11.052L11.6096 13.324C11.6776 13.512 11.8056 13.552 12.0096 13.552C12.2136 13.552 12.3416 13.512 12.4096 13.324L13.2416 11.052Z" fill="#272D55"/>
</svg>
