<svg width="22" height="22" viewBox="0 0 22 22" fill="none" xmlns="http://www.w3.org/2000/svg">
<path d="M7.90625 2.5C4.92523 2.5 2.5 4.92523 2.5 7.90625C2.5 10.8873 4.92523 13.3125 7.90625 13.3125C10.8873 13.3125 13.3125 10.8873 13.3125 7.90625C13.3125 4.92523 10.8873 2.5 7.90625 2.5ZM7.90625 0C12.2727 0 15.8125 3.53975 15.8125 7.90625C15.8125 12.2727 12.2727 15.8125 7.90625 15.8125C3.53975 15.8125 0 12.2727 0 7.90625C0 3.53975 3.53975 0 7.90625 0Z" fill="#272D55"/>
<path d="M12.5635 13.125L18.7505 18.75" stroke="#272D55" stroke-width="2.5" stroke-linecap="round"/>
<path d="M7.90625 7.34375V11.1687" stroke="#272D55" stroke-width="2" stroke-linecap="round"/>
<path d="M7.90625 5.46875C8.45853 5.46875 8.90625 5.02103 8.90625 4.46875C8.90625 3.91647 8.45853 3.46875 7.90625 3.46875C7.35397 3.46875 6.90625 3.91647 6.90625 4.46875C6.90625 5.02103 7.35397 5.46875 7.90625 5.46875Z" fill="#272D55"/>
</svg>
