<svg width="14" height="16" viewBox="0 0 14 16" fill="none" xmlns="http://www.w3.org/2000/svg">
<path d="M4 14L4 2C4 0.89543 3.10457 0 2 0C0.895431 0 0 0.89543 0 2L0 14C0 15.1046 0.895431 16 2 16C3.10457 16 4 15.1046 4 14Z" fill="#272D55"/>
<path d="M3.5 14L3.5 2C3.5 1.17157 2.82843 0.5 2 0.5C1.17157 0.5 0.5 1.17157 0.5 2L0.5 14C0.5 14.8284 1.17157 15.5 2 15.5C2.82843 15.5 3.5 14.8284 3.5 14Z" stroke="#272D55"/>
<path d="M9 14V2C9 0.89543 8.10457 0 7 0C5.89543 0 5 0.89543 5 2L5 14C5 15.1046 5.89543 16 7 16C8.10457 16 9 15.1046 9 14Z" fill="#272D55"/>
<path d="M8.5 14V2C8.5 1.17157 7.82843 0.5 7 0.5C6.17157 0.5 5.5 1.17157 5.5 2L5.5 14C5.5 14.8284 6.17157 15.5 7 15.5C7.82843 15.5 8.5 14.8284 8.5 14Z" stroke="#272D55"/>
<path d="M14 14V2C14 0.89543 13.1046 0 12 0C10.8954 0 10 0.89543 10 2V14C10 15.1046 10.8954 16 12 16C13.1046 16 14 15.1046 14 14Z" fill="#272D55"/>
<path d="M13.5 14V2C13.5 1.17157 12.8284 0.5 12 0.5C11.1716 0.5 10.5 1.17157 10.5 2V14C10.5 14.8284 11.1716 15.5 12 15.5C12.8284 15.5 13.5 14.8284 13.5 14Z" stroke="#272D55"/>
</svg>
