
<svg width="17" height="12" viewBox="0 0 17 12" fill="none" xmlns="http://www.w3.org/2000/svg">
<path d="M1 0H8V6H0V1C0 0.734784 0.105357 0.48043 0.292893 0.292893C0.48043 0.105357 0.734784 0 1 0V0Z" fill="#272D55"/>
<path d="M1 0.5H7.5V5.5H0.5V1C0.5 0.867392 0.552678 0.740215 0.646447 0.646447C0.740215 0.552678 0.867392 0.5 1 0.5V0.5Z" stroke="#272D55"/>
<path d="M0 6H8V12H1C0.734784 12 0.48043 11.8946 0.292893 11.7071C0.105357 11.5196 0 11.2652 0 11V6Z" fill="#AECDFC"/>
<path d="M0.5 6.5H7.5V11.5H1C0.867392 11.5 0.740215 11.4473 0.646447 11.3536C0.552678 11.2598 0.5 11.1326 0.5 11V6.5Z" stroke="#AECDFC"/>
<path d="M8.00391 0H15.0039C15.2691 0 15.5235 0.105357 15.711 0.292893C15.8985 0.48043 16.0039 0.734784 16.0039 1V6H8.00391V0Z" fill="#AECDFC"/>
<path d="M8.50391 0.5H15.0039C15.1365 0.5 15.2637 0.552678 15.3575 0.646447C15.4512 0.740215 15.5039 0.867392 15.5039 1V5.5H8.50391V0.5Z" stroke="#AECDFC"/>
<path d="M8.00391 6H16.0039V11C16.0039 11.2652 15.8985 11.5196 15.711 11.7071C15.5235 11.8946 15.2691 12 15.0039 12H8.00391V6Z" fill="#272D55"/>
<path d="M8.50391 6.5H15.5039V11C15.5039 11.1326 15.4512 11.2598 15.3575 11.3536C15.2637 11.4473 15.1365 11.5 15.0039 11.5H8.50391V6.5Z" stroke="#272D55"/>
</svg>
