<svg width="12" height="16" viewBox="0 0 12 16" fill="none" xmlns="http://www.w3.org/2000/svg">
<path d="M9.5 0H2.5C1.39543 0 0.5 0.89543 0.5 2V14C0.5 15.1046 1.39543 16 2.5 16H9.5C10.6046 16 11.5 15.1046 11.5 14V2C11.5 0.89543 10.6046 0 9.5 0Z" fill="#272D55"/>
<path d="M9.5 0.5H2.5C1.67157 0.5 1 1.17157 1 2V14C1 14.8284 1.67157 15.5 2.5 15.5H9.5C10.3284 15.5 11 14.8284 11 14V2C11 1.17157 10.3284 0.5 9.5 0.5Z" stroke="#272D55"/>
<path d="M11.5 2H0.5V5H11.5V2Z" fill="#AECDFC"/>
<path d="M11 2.5H1V4.5H11V2.5Z" stroke="#AECDFC"/>
<g opacity="0.43">
<path d="M11.5 10H0.5V13H11.5V10Z" fill="#AECDFC"/>
</g>
<g opacity="0.43">
<path d="M11.5 6H0.5V9H11.5V6Z" fill="#AECDFC"/>
</g>
</svg>
