<svg width="16" height="14" viewBox="0 0 16 14" fill="none" xmlns="http://www.w3.org/2000/svg">
<path d="M14 0H2C0.89543 0 0 0.89543 0 2C0 3.10457 0.89543 4 2 4H14C15.1046 4 16 3.10457 16 2C16 0.89543 15.1046 0 14 0Z" fill="#272D55"/>
<path d="M14 0.5H2C1.17157 0.5 0.5 1.17157 0.5 2C0.5 2.82843 1.17157 3.5 2 3.5H14C14.8284 3.5 15.5 2.82843 15.5 2C15.5 1.17157 14.8284 0.5 14 0.5Z" stroke="#272D55"/>
<path d="M14 5H2C0.89543 5 0 5.89543 0 7C0 8.10457 0.89543 9 2 9H14C15.1046 9 16 8.10457 16 7C16 5.89543 15.1046 5 14 5Z" fill="#272D55"/>
<path d="M14 5.5H2C1.17157 5.5 0.5 6.17157 0.5 7C0.5 7.82843 1.17157 8.5 2 8.5H14C14.8284 8.5 15.5 7.82843 15.5 7C15.5 6.17157 14.8284 5.5 14 5.5Z" stroke="#272D55"/>
<path d="M14 10H2C0.89543 10 0 10.8954 0 12C0 13.1046 0.89543 14 2 14H14C15.1046 14 16 13.1046 16 12C16 10.8954 15.1046 10 14 10Z" fill="#AECDFC"/>
<path d="M14 10.5H2C1.17157 10.5 0.5 11.1716 0.5 12C0.5 12.8284 1.17157 13.5 2 13.5H14C14.8284 13.5 15.5 12.8284 15.5 12C15.5 11.1716 14.8284 10.5 14 10.5Z" stroke="#AECDFC"/>
</svg>
