<svg width="16" height="14" viewBox="0 0 16 14" fill="none" xmlns="http://www.w3.org/2000/svg">
<path d="M14 0H2C0.89543 0 0 0.89543 0 2C0 3.10457 0.89543 4 2 4H14C15.1046 4 16 3.10457 16 2C16 0.89543 15.1046 0 14 0Z" fill="#272D55"/>
<path d="M14 0.5H2C1.17157 0.5 0.5 1.17157 0.5 2C0.5 2.82843 1.17157 3.5 2 3.5H14C14.8284 3.5 15.5 2.82843 15.5 2C15.5 1.17157 14.8284 0.5 14 0.5Z" stroke="#272D55"/>
<path d="M14 5H2C0.89543 5 0 5.89543 0 7C0 8.10457 0.89543 9 2 9H14C15.1046 9 16 8.10457 16 7C16 5.89543 15.1046 5 14 5Z" fill="#AECDFC"/>
<path d="M14 5.5H2C1.17157 5.5 0.5 6.17157 0.5 7C0.5 7.82843 1.17157 8.5 2 8.5H14C14.8284 8.5 15.5 7.82843 15.5 7C15.5 6.17157 14.8284 5.5 14 5.5Z" stroke="#AECDFC"/>
<path d="M14 10H2C0.89543 10 0 10.8954 0 12C0 13.1046 0.89543 14 2 14H14C15.1046 14 16 13.1046 16 12C16 10.8954 15.1046 10 14 10Z" fill="#AECDFC"/>
<path d="M14 10.5H2C1.17157 10.5 0.5 11.1716 0.5 12C0.5 12.8284 1.17157 13.5 2 13.5H14C14.8284 13.5 15.5 12.8284 15.5 12C15.5 11.1716 14.8284 10.5 14 10.5Z" stroke="#AECDFC"/>
<path d="M5.756 2.793C5.756 2.94 5.852 3.039 6.002 3.039C6.152 3.039 6.248 2.94 6.248 2.793V1.254H6.713C6.854 1.254 6.968 1.182 6.968 1.047C6.968 0.912 6.854 0.84 6.713 0.84H5.291C5.15 0.84 5.036 0.912 5.036 1.047C5.036 1.182 5.15 1.254 5.291 1.254H5.756V2.793ZM8.12975 2.298C8.27675 2.298 8.32175 2.259 8.32175 2.109C8.32175 1.749 8.03375 1.392 7.52975 1.392C7.01075 1.392 6.70175 1.734 6.70175 2.244C6.70175 2.625 6.93275 3.039 7.54475 3.039C7.80875 3.039 8.23175 2.916 8.23175 2.652C8.23175 2.571 8.15675 2.481 8.05175 2.481C7.87475 2.481 7.87475 2.697 7.54475 2.697C7.28975 2.697 7.13975 2.529 7.13975 2.298H8.12975ZM7.13975 2.046C7.18775 1.833 7.31975 1.698 7.53875 1.698C7.73375 1.698 7.88375 1.845 7.90775 2.046H7.13975ZM9.15066 2.493L9.40266 2.895C9.45966 2.985 9.51366 3.039 9.60366 3.039C9.74466 3.039 9.82566 2.94 9.82566 2.835C9.82566 2.772 9.80766 2.736 9.78366 2.703L9.44466 2.199L9.76266 1.728C9.78966 1.689 9.80766 1.644 9.80766 1.581C9.80766 1.482 9.71166 1.392 9.60966 1.392C9.54066 1.392 9.47466 1.41 9.40866 1.521L9.17166 1.908L8.92566 1.503C8.87466 1.419 8.81766 1.392 8.74866 1.392C8.58966 1.392 8.51466 1.518 8.51466 1.611C8.51466 1.653 8.53566 1.692 8.55966 1.725L8.87466 2.199L8.53866 2.694C8.49966 2.751 8.47866 2.796 8.47866 2.835C8.47866 2.955 8.58666 3.039 8.69166 3.039C8.77266 3.039 8.83266 2.997 8.86266 2.952L9.15066 2.493ZM10.163 2.649C10.163 2.907 10.295 3.039 10.613 3.039C10.823 3.039 10.931 2.97 10.931 2.844C10.931 2.751 10.874 2.697 10.778 2.697H10.715C10.637 2.697 10.601 2.661 10.601 2.595V1.719H10.733C10.862 1.719 10.931 1.68 10.931 1.575C10.931 1.47 10.862 1.431 10.733 1.431H10.601V1.164C10.601 1.02 10.514 0.945 10.382 0.945C10.25 0.945 10.163 1.02 10.163 1.164V1.431H10.088C9.965 1.431 9.914 1.479 9.914 1.575C9.914 1.671 9.965 1.719 10.088 1.719H10.163V2.649Z" fill="#AECDFC"/>
<path d="M2.219 7.802C2.219 7.961 2.309 8.039 2.456 8.039C2.603 8.039 2.693 7.961 2.693 7.802V6.557H2.699L3.554 7.907C3.617 8.006 3.668 8.039 3.824 8.039C4.031 8.039 4.115 7.928 4.115 7.733V6.038C4.115 5.879 4.025 5.801 3.878 5.801C3.731 5.801 3.641 5.879 3.641 6.038V7.319H3.635L2.774 5.93C2.72 5.84 2.63 5.801 2.528 5.801C2.318 5.801 2.219 5.885 2.219 6.089V7.802ZM5.99396 6.611C5.99396 6.494 5.94596 6.392 5.77496 6.392C5.60396 6.392 5.55596 6.494 5.55596 6.611V7.334C5.55596 7.553 5.37596 7.679 5.22296 7.679C5.03396 7.679 4.94696 7.553 4.94696 7.376V6.611C4.94696 6.494 4.89896 6.392 4.72796 6.392C4.55696 6.392 4.50896 6.494 4.50896 6.611V7.463C4.50896 7.907 4.79696 8.039 5.06096 8.039C5.30996 8.039 5.46896 7.925 5.59196 7.763H5.59796V7.82C5.59796 7.952 5.65796 8.039 5.79596 8.039C5.93396 8.039 5.99396 7.952 5.99396 7.82V6.611ZM6.34295 7.82C6.34295 7.937 6.39095 8.039 6.56195 8.039C6.73295 8.039 6.78095 7.937 6.78095 7.82V7.091C6.78095 6.887 6.93095 6.752 7.09895 6.752C7.26995 6.752 7.33895 6.878 7.33895 7.034V7.82C7.33895 7.937 7.38695 8.039 7.55795 8.039C7.72895 8.039 7.77695 7.937 7.77695 7.82V7.091C7.77695 6.887 7.92695 6.752 8.09495 6.752C8.26595 6.752 8.33495 6.878 8.33495 7.034V7.82C8.33495 7.937 8.38295 8.039 8.55395 8.039C8.72495 8.039 8.77295 7.937 8.77295 7.82V6.923C8.77295 6.53 8.52995 6.392 8.22695 6.392C7.98995 6.392 7.83395 6.497 7.71095 6.668C7.62995 6.461 7.44095 6.392 7.29095 6.392C7.06895 6.392 6.87695 6.494 6.76295 6.668H6.75695V6.611C6.75695 6.479 6.67895 6.392 6.54995 6.392C6.42095 6.392 6.34295 6.479 6.34295 6.611V7.82ZM9.12029 7.832C9.12029 7.967 9.18329 8.039 9.31829 8.039C9.44729 8.039 9.51629 7.967 9.51629 7.832V7.763H9.52229C9.59429 7.949 9.77129 8.039 9.98429 8.039C10.3503 8.039 10.6713 7.772 10.6713 7.205C10.6713 6.785 10.4583 6.392 9.99629 6.392C9.80129 6.392 9.65129 6.473 9.56429 6.614H9.55829V6.02C9.55829 5.876 9.47129 5.801 9.33929 5.801C9.20729 5.801 9.12029 5.876 9.12029 6.02V7.832ZM10.2333 7.22C10.2333 7.478 10.1193 7.691 9.88529 7.697C9.63029 7.697 9.53429 7.469 9.53429 7.22C9.53429 6.995 9.61829 6.731 9.88529 6.734C10.1643 6.734 10.2333 7.016 10.2333 7.22ZM12.3163 7.298C12.4633 7.298 12.5083 7.259 12.5083 7.109C12.5083 6.749 12.2203 6.392 11.7163 6.392C11.1973 6.392 10.8883 6.734 10.8883 7.244C10.8883 7.625 11.1193 8.039 11.7313 8.039C11.9953 8.039 12.4183 7.916 12.4183 7.652C12.4183 7.571 12.3433 7.481 12.2383 7.481C12.0613 7.481 12.0613 7.697 11.7313 7.697C11.4763 7.697 11.3263 7.529 11.3263 7.298H12.3163ZM11.3263 7.046C11.3743 6.833 11.5063 6.698 11.7253 6.698C11.9203 6.698 12.0703 6.845 12.0943 7.046H11.3263ZM12.8152 7.82C12.8152 7.937 12.8632 8.039 13.0342 8.039C13.2052 8.039 13.2532 7.937 13.2532 7.82V7.31C13.2532 6.947 13.3492 6.824 13.5262 6.824H13.6042C13.7122 6.824 13.8202 6.767 13.8202 6.605C13.8202 6.482 13.7182 6.392 13.5802 6.392C13.3672 6.392 13.2682 6.581 13.2172 6.764H13.2112V6.596C13.2112 6.464 13.1242 6.392 13.0132 6.392C12.9022 6.392 12.8152 6.464 12.8152 6.596V7.82Z" fill="#272D55"/>
<path d="M4.448 11.656C4.292 11.62 4.112 11.572 4.112 11.422C4.112 11.272 4.238 11.167 4.466 11.167C4.925 11.167 4.883 11.488 5.111 11.488C5.231 11.488 5.336 11.416 5.336 11.293C5.336 11.005 4.883 10.789 4.499 10.789C4.082 10.789 3.638 10.969 3.638 11.449C3.638 11.68 3.719 11.926 4.166 12.04L4.721 12.181C4.889 12.223 4.931 12.319 4.931 12.406C4.931 12.55 4.79 12.691 4.535 12.691C4.037 12.691 4.106 12.301 3.839 12.301C3.719 12.301 3.632 12.385 3.632 12.505C3.632 12.739 3.911 13.051 4.535 13.051C5.129 13.051 5.423 12.76 5.423 12.37C5.423 12.118 5.309 11.851 4.859 11.749L4.448 11.656ZM5.84171 12.649C5.84171 12.907 5.97371 13.039 6.29171 13.039C6.50171 13.039 6.60971 12.97 6.60971 12.844C6.60971 12.751 6.55271 12.697 6.45671 12.697H6.39371C6.31571 12.697 6.27971 12.661 6.27971 12.595V11.719H6.41171C6.54071 11.719 6.60971 11.68 6.60971 11.575C6.60971 11.47 6.54071 11.431 6.41171 11.431H6.27971V11.164C6.27971 11.02 6.19271 10.945 6.06071 10.945C5.92871 10.945 5.84171 11.02 5.84171 11.164V11.431H5.76671C5.64371 11.431 5.59271 11.479 5.59271 11.575C5.59271 11.671 5.64371 11.719 5.76671 11.719H5.84171V12.649ZM6.86206 12.82C6.86206 12.937 6.91006 13.039 7.08106 13.039C7.25206 13.039 7.30006 12.937 7.30006 12.82V12.31C7.30006 11.947 7.39606 11.824 7.57306 11.824H7.65106C7.75906 11.824 7.86706 11.767 7.86706 11.605C7.86706 11.482 7.76506 11.392 7.62706 11.392C7.41406 11.392 7.31506 11.581 7.26406 11.764H7.25806V11.596C7.25806 11.464 7.17106 11.392 7.06006 11.392C6.94906 11.392 6.86206 11.464 6.86206 11.596V12.82ZM8.08374 12.82C8.08374 12.937 8.13174 13.039 8.30274 13.039C8.47374 13.039 8.52174 12.937 8.52174 12.82V11.611C8.52174 11.494 8.47374 11.392 8.30274 11.392C8.13174 11.392 8.08374 11.494 8.08374 11.611V12.82ZM8.07474 11.017C8.07474 11.143 8.17674 11.245 8.30274 11.245C8.42874 11.245 8.53074 11.143 8.53074 11.017C8.53074 10.891 8.42874 10.789 8.30274 10.789C8.17674 10.789 8.07474 10.891 8.07474 11.017ZM8.8947 12.82C8.8947 12.937 8.9427 13.039 9.1137 13.039C9.2847 13.039 9.3327 12.937 9.3327 12.82V12.097C9.3327 11.878 9.5127 11.752 9.6657 11.752C9.8547 11.752 9.9417 11.878 9.9417 12.055V12.82C9.9417 12.937 9.9897 13.039 10.1607 13.039C10.3317 13.039 10.3797 12.937 10.3797 12.82V11.968C10.3797 11.524 10.0917 11.392 9.8277 11.392C9.5787 11.392 9.4197 11.506 9.2967 11.668H9.2907V11.611C9.2907 11.479 9.2307 11.392 9.0927 11.392C8.9547 11.392 8.8947 11.479 8.8947 11.611V12.82ZM11.1007 12.211C11.1007 11.941 11.1877 11.734 11.4697 11.734C11.6737 11.734 11.7937 11.875 11.7937 12.193C11.7937 12.505 11.6437 12.634 11.4487 12.634C11.1997 12.634 11.1007 12.412 11.1007 12.211ZM12.2137 11.599C12.2137 11.464 12.1507 11.392 12.0157 11.392C11.8867 11.392 11.8177 11.464 11.8177 11.599V11.653H11.8117C11.7307 11.491 11.5627 11.392 11.3497 11.392C10.9807 11.392 10.6627 11.659 10.6627 12.226C10.6627 12.658 10.9027 12.958 11.3647 12.958C11.5387 12.958 11.7097 12.862 11.7877 12.748H11.7937V12.838C11.7937 13.183 11.6857 13.318 11.4187 13.318C11.1727 13.318 11.1367 13.093 10.9537 13.093C10.8577 13.093 10.7737 13.171 10.7737 13.279C10.7737 13.492 11.1007 13.642 11.4337 13.642C11.8897 13.642 12.2137 13.399 12.2137 12.871V11.599Z" fill="#272D55"/>
</svg>
