<svg width="16" height="14" viewBox="0 0 16 14" fill="none" xmlns="http://www.w3.org/2000/svg">
<path d="M14 0H2C0.89543 0 0 0.89543 0 2C0 3.10457 0.89543 4 2 4H14C15.1046 4 16 3.10457 16 2C16 0.89543 15.1046 0 14 0Z" fill="#272D55"/>
<path d="M14 0.5H2C1.17157 0.5 0.5 1.17157 0.5 2C0.5 2.82843 1.17157 3.5 2 3.5H14C14.8284 3.5 15.5 2.82843 15.5 2C15.5 1.17157 14.8284 0.5 14 0.5Z" stroke="#272D55"/>
<path d="M14 5H2C0.89543 5 0 5.89543 0 7C0 8.10457 0.89543 9 2 9H14C15.1046 9 16 8.10457 16 7C16 5.89543 15.1046 5 14 5Z" fill="#AECDFC"/>
<path d="M14 5.5H2C1.17157 5.5 0.5 6.17157 0.5 7C0.5 7.82843 1.17157 8.5 2 8.5H14C14.8284 8.5 15.5 7.82843 15.5 7C15.5 6.17157 14.8284 5.5 14 5.5Z" stroke="#AECDFC"/>
<path d="M14 10H2C0.89543 10 0 10.8954 0 12C0 13.1046 0.89543 14 2 14H14C15.1046 14 16 13.1046 16 12C16 10.8954 15.1046 10 14 10Z" fill="#AECDFC"/>
<path d="M14 10.5H2C1.17157 10.5 0.5 11.1716 0.5 12C0.5 12.8284 1.17157 13.5 2 13.5H14C14.8284 13.5 15.5 12.8284 15.5 12C15.5 11.1716 14.8284 10.5 14 10.5Z" stroke="#AECDFC"/>
<path d="M3.513 2.97422C3.513 3.13022 3.573 3.23822 3.741 3.23822C3.909 3.23822 3.969 3.13022 3.969 2.97422V1.27022C3.969 1.10822 3.891 1.06622 3.795 1.06622C3.54 1.06622 3.633 1.40822 3.3 1.48022L3.189 1.50422C3.033 1.53422 2.973 1.56422 2.973 1.67522C2.973 1.79822 3.027 1.83422 3.126 1.83422H3.513V2.97422ZM4.80968 2.82122C4.84868 2.70722 5.05568 2.58422 5.39468 2.39222C5.71268 2.21222 5.89568 2.05622 5.89568 1.65722C5.89568 1.38122 5.61068 1.06622 5.13068 1.06622C4.68968 1.06622 4.32968 1.34522 4.32968 1.71122C4.32968 1.86122 4.42568 1.91222 4.54868 1.91222C4.66868 1.91222 4.70768 1.85522 4.73768 1.74422C4.80368 1.50422 4.93268 1.42622 5.12468 1.42622C5.28968 1.42622 5.43968 1.53422 5.43968 1.72922C5.43968 1.97222 5.29568 2.02622 4.87868 2.29022C4.50368 2.52722 4.31468 2.76422 4.31468 2.97722C4.31468 3.08222 4.38668 3.19922 4.56068 3.19922H5.68568C5.82368 3.19922 5.90768 3.14522 5.90768 3.01022C5.90768 2.87522 5.82368 2.82122 5.70968 2.82122H4.80968ZM6.093 2.71922C6.093 2.88722 6.27 3.23822 6.834 3.23822C7.278 3.23822 7.644 3.01022 7.644 2.53622C7.644 2.31122 7.548 2.13122 7.323 2.06822C7.491 1.97822 7.578 1.84022 7.578 1.64822C7.578 1.35722 7.386 1.06622 6.867 1.06622C6.576 1.06622 6.141 1.22222 6.141 1.58822C6.141 1.72322 6.24 1.76822 6.342 1.76822C6.579 1.76822 6.495 1.42622 6.858 1.42622C7.017 1.42622 7.158 1.51022 7.158 1.69022C7.158 1.82822 7.08 1.91522 6.93 1.92422C6.759 1.93322 6.669 1.96622 6.669 2.12222C6.669 2.26022 6.834 2.27522 6.918 2.28422C7.125 2.30522 7.188 2.41022 7.188 2.55422C7.188 2.74022 7.068 2.87822 6.843 2.87822C6.429 2.87822 6.573 2.50922 6.306 2.50922C6.183 2.50922 6.093 2.59622 6.093 2.71922ZM8.79832 2.37722H8.21332L8.79232 1.60022H8.79832V2.37722ZM8.79832 3.02822C8.79832 3.15422 8.85232 3.23822 9.00832 3.23822C9.16432 3.23822 9.21832 3.15422 9.21832 3.02822V2.71922H9.36832C9.47032 2.71922 9.53632 2.64722 9.53632 2.54822C9.53632 2.44922 9.47032 2.37722 9.36832 2.37722H9.21832V1.28222C9.21832 1.15322 9.15532 1.06622 8.99332 1.06622C8.90932 1.06622 8.84332 1.09022 8.79832 1.15022L7.87432 2.33522C7.83532 2.38622 7.81732 2.43422 7.81732 2.51222C7.81732 2.60822 7.88932 2.71922 8.04532 2.71922H8.79832V3.02822ZM9.7533 1.93322C9.7443 1.98422 9.7383 2.03222 9.7383 2.09222C9.7383 2.23322 9.8373 2.29022 9.9453 2.29022C10.0953 2.29022 10.1673 2.14322 10.4043 2.14322C10.6293 2.14322 10.8093 2.25722 10.8093 2.51222C10.8093 2.70722 10.6533 2.89622 10.4253 2.89622C10.1073 2.89622 10.1073 2.60522 9.9243 2.60522C9.7953 2.60522 9.7083 2.69222 9.7083 2.81222C9.7083 2.96822 9.9003 3.23822 10.4193 3.23822C10.8993 3.23822 11.2473 2.97422 11.2473 2.49122C11.2473 2.02922 10.9113 1.80122 10.5363 1.80122C10.3833 1.80122 10.2273 1.84622 10.1193 1.93922L10.1133 1.93322L10.1943 1.48322H10.9593C11.0673 1.48322 11.1513 1.42922 11.1513 1.29422C11.1513 1.15922 11.0673 1.10522 10.9533 1.10522H10.0533C9.9543 1.10522 9.8793 1.19222 9.8613 1.29422L9.7533 1.93322Z" fill="#AECDFC"/>
<path d="M3.513 7.97422C3.513 8.13022 3.573 8.23822 3.741 8.23822C3.909 8.23822 3.969 8.13022 3.969 7.97422V6.27022C3.969 6.10822 3.891 6.06622 3.795 6.06622C3.54 6.06622 3.633 6.40822 3.3 6.48022L3.189 6.50422C3.033 6.53422 2.973 6.56422 2.973 6.67522C2.973 6.79822 3.027 6.83422 3.126 6.83422H3.513V7.97422ZM4.80968 7.82122C4.84868 7.70722 5.05568 7.58422 5.39468 7.39222C5.71268 7.21222 5.89568 7.05622 5.89568 6.65722C5.89568 6.38122 5.61068 6.06622 5.13068 6.06622C4.68968 6.06622 4.32968 6.34522 4.32968 6.71122C4.32968 6.86122 4.42568 6.91222 4.54868 6.91222C4.66868 6.91222 4.70768 6.85522 4.73768 6.74422C4.80368 6.50422 4.93268 6.42622 5.12468 6.42622C5.28968 6.42622 5.43968 6.53422 5.43968 6.72922C5.43968 6.97222 5.29568 7.02622 4.87868 7.29022C4.50368 7.52722 4.31468 7.76422 4.31468 7.97722C4.31468 8.08222 4.38668 8.19922 4.56068 8.19922H5.68568C5.82368 8.19922 5.90768 8.14522 5.90768 8.01022C5.90768 7.87522 5.82368 7.82122 5.70968 7.82122H4.80968ZM6.093 7.71922C6.093 7.88722 6.27 8.23822 6.834 8.23822C7.278 8.23822 7.644 8.01022 7.644 7.53622C7.644 7.31122 7.548 7.13122 7.323 7.06822C7.491 6.97822 7.578 6.84022 7.578 6.64822C7.578 6.35722 7.386 6.06622 6.867 6.06622C6.576 6.06622 6.141 6.22222 6.141 6.58822C6.141 6.72322 6.24 6.76822 6.342 6.76822C6.579 6.76822 6.495 6.42622 6.858 6.42622C7.017 6.42622 7.158 6.51022 7.158 6.69022C7.158 6.82822 7.08 6.91522 6.93 6.92422C6.759 6.93322 6.669 6.96622 6.669 7.12222C6.669 7.26022 6.834 7.27522 6.918 7.28422C7.125 7.30522 7.188 7.41022 7.188 7.55422C7.188 7.74022 7.068 7.87822 6.843 7.87822C6.429 7.87822 6.573 7.50922 6.306 7.50922C6.183 7.50922 6.093 7.59622 6.093 7.71922ZM8.79832 7.37722H8.21332L8.79232 6.60022H8.79832V7.37722ZM8.79832 8.02822C8.79832 8.15422 8.85232 8.23822 9.00832 8.23822C9.16432 8.23822 9.21832 8.15422 9.21832 8.02822V7.71922H9.36832C9.47032 7.71922 9.53632 7.64722 9.53632 7.54822C9.53632 7.44922 9.47032 7.37722 9.36832 7.37722H9.21832V6.28222C9.21832 6.15322 9.15532 6.06622 8.99332 6.06622C8.90932 6.06622 8.84332 6.09022 8.79832 6.15022L7.87432 7.33522C7.83532 7.38622 7.81732 7.43422 7.81732 7.51222C7.81732 7.60822 7.88932 7.71922 8.04532 7.71922H8.79832V8.02822ZM9.7533 6.93322C9.7443 6.98422 9.7383 7.03222 9.7383 7.09222C9.7383 7.23322 9.8373 7.29022 9.9453 7.29022C10.0953 7.29022 10.1673 7.14322 10.4043 7.14322C10.6293 7.14322 10.8093 7.25722 10.8093 7.51222C10.8093 7.70722 10.6533 7.89622 10.4253 7.89622C10.1073 7.89622 10.1073 7.60522 9.9243 7.60522C9.7953 7.60522 9.7083 7.69222 9.7083 7.81222C9.7083 7.96822 9.9003 8.23822 10.4193 8.23822C10.8993 8.23822 11.2473 7.97422 11.2473 7.49122C11.2473 7.02922 10.9113 6.80122 10.5363 6.80122C10.3833 6.80122 10.2273 6.84622 10.1193 6.93922L10.1133 6.93322L10.1943 6.48322H10.9593C11.0673 6.48322 11.1513 6.42922 11.1513 6.29422C11.1513 6.15922 11.0673 6.10522 10.9533 6.10522H10.0533C9.9543 6.10522 9.8793 6.19222 9.8613 6.29422L9.7533 6.93322Z" fill="#272D55"/>
<path d="M3.513 12.775C3.513 12.931 3.573 13.039 3.741 13.039C3.909 13.039 3.969 12.931 3.969 12.775V11.071C3.969 10.909 3.891 10.867 3.795 10.867C3.54 10.867 3.633 11.209 3.3 11.281L3.189 11.305C3.033 11.335 2.973 11.365 2.973 11.476C2.973 11.599 3.027 11.635 3.126 11.635H3.513V12.775ZM4.80968 12.622C4.84868 12.508 5.05568 12.385 5.39468 12.193C5.71268 12.013 5.89568 11.857 5.89568 11.458C5.89568 11.182 5.61068 10.867 5.13068 10.867C4.68968 10.867 4.32968 11.146 4.32968 11.512C4.32968 11.662 4.42568 11.713 4.54868 11.713C4.66868 11.713 4.70768 11.656 4.73768 11.545C4.80368 11.305 4.93268 11.227 5.12468 11.227C5.28968 11.227 5.43968 11.335 5.43968 11.53C5.43968 11.773 5.29568 11.827 4.87868 12.091C4.50368 12.328 4.31468 12.565 4.31468 12.778C4.31468 12.883 4.38668 13 4.56068 13H5.68568C5.82368 13 5.90768 12.946 5.90768 12.811C5.90768 12.676 5.82368 12.622 5.70968 12.622H4.80968ZM6.093 12.52C6.093 12.688 6.27 13.039 6.834 13.039C7.278 13.039 7.644 12.811 7.644 12.337C7.644 12.112 7.548 11.932 7.323 11.869C7.491 11.779 7.578 11.641 7.578 11.449C7.578 11.158 7.386 10.867 6.867 10.867C6.576 10.867 6.141 11.023 6.141 11.389C6.141 11.524 6.24 11.569 6.342 11.569C6.579 11.569 6.495 11.227 6.858 11.227C7.017 11.227 7.158 11.311 7.158 11.491C7.158 11.629 7.08 11.716 6.93 11.725C6.759 11.734 6.669 11.767 6.669 11.923C6.669 12.061 6.834 12.076 6.918 12.085C7.125 12.106 7.188 12.211 7.188 12.355C7.188 12.541 7.068 12.679 6.843 12.679C6.429 12.679 6.573 12.31 6.306 12.31C6.183 12.31 6.093 12.397 6.093 12.52ZM8.79832 12.178H8.21332L8.79232 11.401H8.79832V12.178ZM8.79832 12.829C8.79832 12.955 8.85232 13.039 9.00832 13.039C9.16432 13.039 9.21832 12.955 9.21832 12.829V12.52H9.36832C9.47032 12.52 9.53632 12.448 9.53632 12.349C9.53632 12.25 9.47032 12.178 9.36832 12.178H9.21832V11.083C9.21832 10.954 9.15532 10.867 8.99332 10.867C8.90932 10.867 8.84332 10.891 8.79832 10.951L7.87432 12.136C7.83532 12.187 7.81732 12.235 7.81732 12.313C7.81732 12.409 7.88932 12.52 8.04532 12.52H8.79832V12.829ZM9.7533 11.734C9.7443 11.785 9.7383 11.833 9.7383 11.893C9.7383 12.034 9.8373 12.091 9.9453 12.091C10.0953 12.091 10.1673 11.944 10.4043 11.944C10.6293 11.944 10.8093 12.058 10.8093 12.313C10.8093 12.508 10.6533 12.697 10.4253 12.697C10.1073 12.697 10.1073 12.406 9.9243 12.406C9.7953 12.406 9.7083 12.493 9.7083 12.613C9.7083 12.769 9.9003 13.039 10.4193 13.039C10.8993 13.039 11.2473 12.775 11.2473 12.292C11.2473 11.83 10.9113 11.602 10.5363 11.602C10.3833 11.602 10.2273 11.647 10.1193 11.74L10.1133 11.734L10.1943 11.284H10.9593C11.0673 11.284 11.1513 11.23 11.1513 11.095C11.1513 10.96 11.0673 10.906 10.9533 10.906H10.0533C9.9543 10.906 9.8793 10.993 9.8613 11.095L9.7533 11.734Z" fill="#272D55"/>
</svg>
