<svg width="16" height="6" viewBox="0 0 16 6" fill="none" xmlns="http://www.w3.org/2000/svg">
<path d="M0.1875 4.585C0.1425 4.705 0.0675 4.9225 0.0675 5.0575C0.0675 5.3875 0.3 5.5975 0.6375 5.5975C0.93 5.5975 1.1025 5.5 1.185 5.26L1.5075 4.36H3.4875L3.8025 5.26C3.8925 5.5 4.0875 5.5975 4.3575 5.5975C4.6725 5.5975 4.935 5.3575 4.935 5.0575C4.935 4.9225 4.86 4.705 4.815 4.585L3.33 0.4525C3.195 0.0699997 2.9475 0.0024997 2.67 0.0024997H2.3775C2.0775 0.0024997 1.8825 0.0999998 1.7775 0.3775L0.1875 4.585ZM3.2175 3.505H1.7775L2.505 1.3375H2.52L3.2175 3.505ZM5.57244 4.78C5.57244 5.3275 5.85744 5.5 6.29244 5.5H8.09994C9.16494 5.5 10.0874 5.035 10.0874 3.9025C10.0874 3.16 9.71244 2.755 9.14244 2.605V2.59C9.65244 2.3875 9.89994 1.9525 9.89994 1.495C9.89994 0.3025 8.82744 0.0999998 7.92744 0.0999998H6.29244C5.85744 0.0999998 5.57244 0.2725 5.57244 0.82V4.78ZM6.80244 3.1H7.68744C8.28744 3.1 8.85744 3.1825 8.85744 3.835C8.85744 4.4575 8.31744 4.555 7.83744 4.555H6.80244V3.1ZM6.80244 1H7.77744C8.23494 1 8.66994 1.1425 8.66994 1.66C8.66994 2.0875 8.39244 2.32 7.81494 2.32H6.80244V1Z" fill="#272D55"/>
<path d="M10.985 4.78C10.985 5.3275 11.27 5.5 11.705 5.5H13.5125C14.5775 5.5 15.5 5.035 15.5 3.9025C15.5 3.16 15.125 2.755 14.555 2.605V2.59C15.065 2.3875 15.3125 1.9525 15.3125 1.495C15.3125 0.3025 14.24 0.0999998 13.34 0.0999998H11.705C11.27 0.0999998 10.985 0.2725 10.985 0.82V4.78ZM12.215 3.1H13.1C13.7 3.1 14.27 3.1825 14.27 3.835C14.27 4.4575 13.73 4.555 13.25 4.555H12.215V3.1ZM12.215 1H13.19C13.6475 1 14.0825 1.1425 14.0825 1.66C14.0825 2.0875 13.805 2.32 13.2275 2.32H12.215V1Z" fill="#AECDFC"/>
</svg>
