<svg width="12" height="16" viewBox="0 0 12 16" fill="none" xmlns="http://www.w3.org/2000/svg">
<path d="M3.6 0H2C0.89543 0 0 0.89543 0 2V14C0 15.1046 0.89543 16 2 16H3.6C4.70457 16 5.6 15.1046 5.6 14V2C5.6 0.89543 4.70457 0 3.6 0Z" fill="#272D55"/>
<path d="M3.6 0.5H2C1.17157 0.5 0.5 1.17157 0.5 2V14C0.5 14.8284 1.17157 15.5 2 15.5H3.6C4.42843 15.5 5.1 14.8284 5.1 14V2C5.1 1.17157 4.42843 0.5 3.6 0.5Z" stroke="#272D55"/>
<path d="M10.0004 0H8.40039C7.29582 0 6.40039 0.89543 6.40039 2V4.4C6.40039 5.50457 7.29582 6.4 8.40039 6.4H10.0004C11.105 6.4 12.0004 5.50457 12.0004 4.4V2C12.0004 0.89543 11.105 0 10.0004 0Z" fill="#272D55"/>
<path d="M10.0004 0.5H8.40039C7.57196 0.5 6.90039 1.17157 6.90039 2V4.4C6.90039 5.22843 7.57196 5.9 8.40039 5.9H10.0004C10.8288 5.9 11.5004 5.22843 11.5004 4.4V2C11.5004 1.17157 10.8288 0.5 10.0004 0.5Z" stroke="#272D55"/>
<path d="M10.0004 7.19922H8.40039C7.29582 7.19922 6.40039 8.09465 6.40039 9.19922V13.9992C6.40039 15.1038 7.29582 15.9992 8.40039 15.9992H10.0004C11.105 15.9992 12.0004 15.1038 12.0004 13.9992V9.19922C12.0004 8.09465 11.105 7.19922 10.0004 7.19922Z" fill="#272D55"/>
<path d="M10.0004 7.69922H8.40039C7.57196 7.69922 6.90039 8.37079 6.90039 9.19922V13.9992C6.90039 14.8276 7.57196 15.4992 8.40039 15.4992H10.0004C10.8288 15.4992 11.5004 14.8276 11.5004 13.9992V9.19922C11.5004 8.37079 10.8288 7.69922 10.0004 7.69922Z" stroke="#272D55"/>
</svg>
