<svg width="17" height="17" viewBox="0 0 17 17" fill="none" xmlns="http://www.w3.org/2000/svg">
<path d="M9.65877 3.24805L12.9858 6.79905C12.9328 6.85905 12.8928 6.90705 12.8498 6.95205C10.7268 9.18705 8.92577 11.152 6.80177 13.384C6.69995 13.4936 6.58149 13.5864 6.45077 13.659C5.02877 14.4064 3.6051 15.1497 2.17977 15.889C2.01973 15.9886 1.82814 16.0244 1.64294 15.9894C1.45774 15.9544 1.29244 15.8511 1.17977 15.7C1.07537 15.5686 1.01216 15.4093 0.998107 15.242C0.98405 15.0747 1.01977 14.9071 1.10077 14.76C1.58977 13.723 2.11377 12.699 2.55577 11.64C3.01607 10.5635 3.68221 9.58723 4.51677 8.76605C6.32477 6.92905 7.75677 5.30705 9.53377 3.43605C9.57993 3.37719 9.62171 3.31502 9.65877 3.25005V3.24805Z" fill="#272D55"/>
<path d="M10.5449 2.28649C11.0819 1.74449 11.6149 1.19349 12.1649 0.657486C12.5054 0.323592 12.9411 0.103487 13.4119 0.0274861C13.8793 -0.0462746 14.358 0.0293138 14.7799 0.243486C15.2159 0.465491 15.5745 0.814062 15.8089 1.24349C16.0492 1.68279 16.1579 2.18204 16.1219 2.68149C16.0996 3.19709 15.9044 3.69019 15.5679 4.08149C15.0279 4.68149 14.4539 5.24249 13.9019 5.81249L10.5449 2.28649Z" fill="#C0D9FF"/>
<path d="M12.3581 15.9991H8.95811C8.75453 16.0145 8.55177 15.9602 8.38311 15.8451C8.25167 15.7446 8.15287 15.6076 8.09912 15.4511C8.04422 15.2921 8.03589 15.1207 8.07511 14.9571C8.11422 14.7991 8.1991 14.6561 8.31911 14.5461C8.43617 14.4391 8.58369 14.3713 8.74111 14.3521C8.82618 14.3437 8.91164 14.34 8.99711 14.3411H15.7391C15.8616 14.3361 15.9841 14.3462 16.1041 14.3711C16.2827 14.4223 16.437 14.5358 16.5391 14.6911C16.6441 14.8503 16.6923 15.0401 16.6761 15.2301C16.667 15.4198 16.5928 15.6006 16.4661 15.7421C16.343 15.8798 16.1736 15.9673 15.9901 15.9881C15.8864 15.9981 15.7823 16.0025 15.6781 16.0011L12.3581 15.9991Z" fill="#272D55"/>
</svg>
