<svg width="20" height="20" viewBox="0 0 20 20" fill="none" xmlns="http://www.w3.org/2000/svg">
<g clip-path="url(#clip0_1438_632)">
<path d="M8.91364 2.48964C7.64334 2.48928 6.40145 2.86567 5.34505 3.57122C4.28866 4.27676 3.46519 5.27977 2.97882 6.45338C2.49244 7.62699 2.36499 8.9185 2.61259 10.1646C2.86019 11.4106 3.47172 12.5553 4.36983 13.4537C5.26795 14.3522 6.4123 14.9641 7.65817 15.2121C8.90405 15.46 10.1955 15.333 11.3691 14.8469C12.5428 14.3608 13.5459 13.5375 14.2517 12.4812C14.9575 11.4249 15.3342 10.183 15.3342 8.91262C15.3322 7.21006 14.6552 5.57776 13.4516 4.37369C12.248 3.16963 10.616 2.49208 8.91364 2.48964ZM8.91364 1.90249e-07C10.6762 0.000364379 12.399 0.52339 13.8643 1.50294C15.3296 2.4825 16.4715 3.87458 17.1458 5.50319C17.82 7.13179 17.9962 8.92376 17.6521 10.6525C17.3081 12.3813 16.4592 13.9692 15.2127 15.2155C13.9663 16.4617 12.3784 17.3104 10.6497 17.6541C8.92106 17.9979 7.12929 17.8213 5.50097 17.1466C3.87266 16.472 2.48094 15.3297 1.50178 13.864C0.522618 12.3984 3.76193e-08 10.6753 0 8.91262C-2.49827e-08 7.74205 0.23057 6.58294 0.678545 5.50149C1.12652 4.42004 1.78312 3.43744 2.61086 2.6098C3.43859 1.78216 4.42123 1.1257 5.50268 0.677906C6.58412 0.230113 7.74317 -0.000241665 8.91364 1.90249e-07Z" fill="#84AFEF"/>
<path d="M18.6819 19.9998C18.354 20 18.038 19.8772 17.7963 19.6555L13.3772 15.6393C13.1184 15.4041 12.9636 15.0758 12.9468 14.7265C12.9301 14.3772 13.0528 14.0355 13.2879 13.7767C13.523 13.5178 13.8514 13.363 14.2006 13.3462C14.5499 13.3295 14.8915 13.4522 15.1504 13.6873L19.5694 17.7036C19.7662 17.8829 19.9042 18.1175 19.9653 18.3766C20.0263 18.6357 20.0077 18.9072 19.9117 19.1555C19.8157 19.4039 19.6469 19.6174 19.4275 19.768C19.208 19.9187 18.9481 19.9995 18.6819 19.9998Z" fill="#84AFEF"/>
</g>
<defs>
<clipPath id="clip0_1438_632">
<rect width="20" height="20" fill="white"/>
</clipPath>
</defs>
</svg>
