<svg width="15" height="16" viewBox="0 0 15 16" fill="none" xmlns="http://www.w3.org/2000/svg">
<path d="M12.0234 15.5009C11.7283 15.5011 11.4396 15.4142 11.1936 15.2511C10.9476 15.0879 10.7552 14.8559 10.6404 14.5839C11.7443 14.3315 12.748 13.756 13.5234 12.9309V14.0009C13.5234 14.3987 13.3654 14.7803 13.0841 15.0616C12.8028 15.3429 12.4213 15.5009 12.0234 15.5009ZM13.5234 9.41991C12.6992 8.62364 11.6534 8.09518 10.5234 7.90391V2.00391C10.5234 1.60608 10.6815 1.22455 10.9628 0.943249C11.2441 0.661944 11.6256 0.503906 12.0234 0.503906C12.4213 0.503906 12.8028 0.661944 13.0841 0.943249C13.3654 1.22455 13.5234 1.60608 13.5234 2.00391V9.42291V9.41991Z" fill="#272D55" stroke="#272D55"/>
<path d="M4 14L4 2C4 0.89543 3.10457 0 2 0C0.895431 0 0 0.89543 0 2L0 14C0 15.1046 0.895431 16 2 16C3.10457 16 4 15.1046 4 14Z" fill="#272D55"/>
<path d="M3.5 14L3.5 2C3.5 1.17157 2.82843 0.5 2 0.5C1.17157 0.5 0.5 1.17157 0.5 2L0.5 14C0.5 14.8284 1.17157 15.5 2 15.5C2.82843 15.5 3.5 14.8284 3.5 14Z" stroke="#272D55"/>
<path d="M7 15.5C6.60218 15.5 6.22064 15.342 5.93933 15.0607C5.65803 14.7794 5.5 14.3978 5.5 14V2C5.5 1.60218 5.65803 1.22064 5.93933 0.939339C6.22064 0.658034 6.60218 0.5 7 0.5C7.39782 0.5 7.77936 0.658034 8.06067 0.939339C8.34197 1.22064 8.5 1.60218 8.5 2V8.442C7.43615 9.24875 6.526 10.2402 5.81299 11.369C6.51848 12.4976 7.41761 13.4929 8.46899 14.309C8.39703 14.6455 8.21203 14.9471 7.94476 15.1638C7.67749 15.3805 7.34407 15.4992 7 15.5Z" fill="#272D55" stroke="#272D55"/>
<path d="M7.66992 11.1823C7.66992 11.1823 8.93392 9.40625 10.2769 9.40625C11.6199 9.40625 13.0419 11.1823 13.0419 11.1823C13.0419 11.1823 11.6199 13.1342 10.2769 13.1342C8.93392 13.1342 7.66992 11.1823 7.66992 11.1823Z" stroke="#AECDFC"/>
<path d="M10.3569 12.1552C10.8733 12.1552 11.2919 11.7365 11.2919 11.2202C11.2919 10.7038 10.8733 10.2852 10.3569 10.2852C9.84049 10.2852 9.42188 10.7038 9.42188 11.2202C9.42188 11.7365 9.84049 12.1552 10.3569 12.1552Z" fill="white"/>
<path d="M10.3569 11.6552C10.5971 11.6552 10.7919 11.4604 10.7919 11.2202C10.7919 10.9799 10.5971 10.7852 10.3569 10.7852C10.1166 10.7852 9.92188 10.9799 9.92188 11.2202C9.92188 11.4604 10.1166 11.6552 10.3569 11.6552Z" stroke="#AECDFC"/>
</svg>
