<svg width="17" height="12" viewBox="0 0 17 12" fill="none" xmlns="http://www.w3.org/2000/svg">
<path d="M15.9996 0.882812H11.1426C10.5903 0.882812 10.1426 1.33053 10.1426 1.88281V10.1688C10.1426 10.7211 10.5903 11.1688 11.1426 11.1688H15.9996C16.5519 11.1688 16.9996 10.7211 16.9996 10.1688V1.88281C16.9996 1.33053 16.5519 0.882812 15.9996 0.882812Z" fill="#272C55"/>
<path d="M15.9996 1.38281H11.1426C10.8664 1.38281 10.6426 1.60667 10.6426 1.88281V10.1688C10.6426 10.445 10.8664 10.6688 11.1426 10.6688H15.9996C16.2757 10.6688 16.4996 10.445 16.4996 10.1688V1.88281C16.4996 1.60667 16.2757 1.38281 15.9996 1.38281Z" stroke="#272C55"/>
<path d="M6.857 0.882812H2C1.44772 0.882812 1 1.33053 1 1.88281V10.1688C1 10.7211 1.44772 11.1688 2 11.1688H6.857C7.40928 11.1688 7.857 10.7211 7.857 10.1688V1.88281C7.857 1.33053 7.40928 0.882812 6.857 0.882812Z" fill="#272C55"/>
<path d="M6.857 1.38281H2C1.72386 1.38281 1.5 1.60667 1.5 1.88281V10.1688C1.5 10.445 1.72386 10.6688 2 10.6688H6.857C7.13314 10.6688 7.357 10.445 7.357 10.1688V1.88281C7.357 1.60667 7.13314 1.38281 6.857 1.38281Z" stroke="#272C55"/>
<path d="M10.7617 4.18359H16.4757" stroke="#AECDFC" stroke-linecap="round"/>
<path d="M10.7617 7.48438H16.4757" stroke="#AECDFC" stroke-linecap="round"/>
<path d="M1.41309 7.48438H7.33409" stroke="#AECDFC" stroke-linecap="round"/>
<path d="M1.41309 4.18359H7.33409" stroke="#AECDFC" stroke-linecap="round"/>
<path d="M4.37305 1.45703V10.536" stroke="#AECDFC" stroke-linecap="round"/>
<path d="M13.7939 1.29688V10.4579" stroke="#AECDFC" stroke-linecap="round"/>
</svg>
