<svg width="20" height="13" viewBox="0 0 20 13" fill="none" xmlns="http://www.w3.org/2000/svg">
<path d="M18.8444 12.5007H1.1566C0.860357 12.5007 0.734518 12.279 0.703008 12.2111C0.671498 12.1431 0.583548 11.9039 0.774898 11.6777L9.61879 1.22586C9.71539 1.1117 9.85095 1.04883 10.0005 1.04883C10.15 1.04883 10.2856 1.1117 10.3822 1.22586L19.2261 11.6777C19.4174 11.9039 19.3295 12.1431 19.298 12.2111C19.2665 12.279 19.1406 12.5007 18.8444 12.5007Z" fill="#272D55"/>
<path d="M10.0001 1.54883L1.15622 12.0007C1.15622 12.0007 1.15622 12.0007 1.15622 12.0007H18.844C18.844 12.0007 18.844 12.0007 18.844 12.0007L10.0017 1.54898C10.0015 1.54894 10.001 1.54883 10.0001 1.54883ZM10.0001 0.548828C10.2819 0.548828 10.5638 0.666848 10.7635 0.902888L19.6074 11.3548C20.1573 12.0047 19.6954 13.0007 18.844 13.0007H1.15622C0.304855 13.0007 -0.157096 12.0047 0.392833 11.3548L9.23672 0.902888C9.43645 0.666848 9.71828 0.548828 10.0001 0.548828Z" fill="#272D55"/>
<path d="M10 7.11328V10.3763" stroke="#AECDFC" stroke-width="2" stroke-linecap="round"/>
<path d="M9.99967 5.34895C10.7513 5.34895 11.3607 4.73961 11.3607 3.98795C11.3607 3.23629 10.7513 2.62695 9.99967 2.62695C9.24801 2.62695 8.63867 3.23629 8.63867 3.98795C8.63867 4.73961 9.24801 5.34895 9.99967 5.34895Z" fill="#AECDFC"/>
<path d="M9.99967 4.84895C10.4752 4.84895 10.8607 4.46347 10.8607 3.98795C10.8607 3.51244 10.4752 3.12695 9.99967 3.12695C9.52415 3.12695 9.13867 3.51244 9.13867 3.98795C9.13867 4.46347 9.52415 4.84895 9.99967 4.84895Z" stroke="#AECDFC"/>
</svg>
