<svg width="20" height="20" viewBox="0 0 20 20" fill="none" xmlns="http://www.w3.org/2000/svg">
<path d="M5.23802 17.3672C5.26467 17.3239 5.29965 17.2864 5.34093 17.2568C5.38221 17.2272 5.42897 17.2061 5.47848 17.1948C5.52799 17.1834 5.57926 17.182 5.62931 17.1907C5.67937 17.1993 5.7272 17.2179 5.77002 17.2452C5.85675 17.3008 5.918 17.3884 5.94047 17.489C5.96294 17.5896 5.94481 17.6949 5.89002 17.7822L5.10702 19.0442C5.08038 19.0874 5.04539 19.1249 5.00411 19.1545C4.96283 19.1841 4.91607 19.2052 4.86657 19.2166C4.81706 19.2279 4.76579 19.2293 4.71573 19.2207C4.66568 19.212 4.61785 19.1935 4.57502 19.1662C4.4883 19.1105 4.42705 19.0229 4.40458 18.9224C4.3821 18.8218 4.40023 18.7164 4.45502 18.6292L5.23802 17.3672ZM1.07002 12.3672C1.09632 12.4668 1.08217 12.5727 1.03065 12.6619C0.979127 12.751 0.894424 12.8162 0.795023 12.8432C0.745774 12.8561 0.694454 12.8591 0.644021 12.8522C0.593587 12.8452 0.545036 12.8283 0.501163 12.8024C0.457291 12.7766 0.418965 12.7423 0.388391 12.7016C0.357818 12.6609 0.335602 12.6145 0.323023 12.5652C0.260023 12.3192 0.204023 12.0712 0.157023 11.8192C0.110023 11.5672 0.076023 11.3192 0.050023 11.0732C0.034023 10.9122 0.021023 10.7482 0.014023 10.5822C0.00702298 10.4162 2.2984e-05 10.2432 2.2984e-05 10.0922C-0.00567401 7.41988 1.04791 4.85424 2.93002 2.95717C3.85465 2.02163 4.95552 1.2786 6.169 0.77103C7.38249 0.263457 8.68453 0.00140037 9.9999 5.59714e-06C11.3153 -0.00138917 12.6179 0.257905 13.8324 0.762904C15.047 1.2679 16.1494 2.00859 17.076 2.94217C18.0066 3.87748 18.7439 4.98697 19.2456 6.20727C19.7473 7.42757 20.0037 8.73477 20 10.0542C20 10.1569 19.9592 10.2555 19.8865 10.3282C19.8139 10.4008 19.7153 10.4417 19.6125 10.4417C19.5098 10.4417 19.4112 10.4008 19.3385 10.3282C19.2658 10.2555 19.225 10.1569 19.225 10.0542C19.23 8.83911 18.9952 7.63501 18.5339 6.51089C18.0727 5.38676 17.3941 4.36473 16.5371 3.50336C15.6801 2.64199 14.6615 1.95823 13.5398 1.49128C12.418 1.02432 11.2151 0.783349 10 0.782175C8.78625 0.781563 7.58448 1.02234 6.46462 1.49051C5.34477 1.95867 4.32921 2.64487 3.47702 3.50917C1.74264 5.26102 0.771972 7.62801 0.777023 10.0932C0.777023 10.2642 0.777023 10.4172 0.787023 10.5532C0.797023 10.6892 0.805023 10.8532 0.820023 11.0012C0.844023 11.2312 0.877023 11.4592 0.920023 11.6862C0.963023 11.9132 1.01302 12.1392 1.07302 12.3732L1.07002 12.3672ZM2.11202 15.9072C2.07382 15.9407 2.02934 15.9663 1.98116 15.9825C1.93298 15.9987 1.88207 16.0052 1.83138 16.0015C1.78068 15.9979 1.73121 15.9842 1.68583 15.9614C1.64045 15.9385 1.60007 15.9068 1.56702 15.8682C1.50004 15.7897 1.46659 15.6881 1.47388 15.5852C1.48118 15.4823 1.52864 15.3864 1.60602 15.3182C1.70648 15.2296 1.79311 15.1264 1.86302 15.0122C1.94464 14.8787 2.00852 14.7352 2.05302 14.5852C2.2427 13.7357 2.22452 12.8531 2.00002 12.0122C1.87231 11.4101 1.80133 10.7975 1.78802 10.1822C1.8262 8.67488 2.27788 7.20707 3.0937 5.93907C3.90952 4.67107 5.05812 3.65165 6.41402 2.99217C7.50626 2.42489 8.70625 2.09532 9.93502 2.02517C11.1721 1.95323 12.4074 2.19397 13.527 2.72517C16.068 3.94417 18.127 6.79717 18.561 11.8502C18.5669 11.9018 18.5623 11.954 18.5476 12.0039C18.5329 12.0537 18.5083 12.1 18.4753 12.1401C18.4423 12.1803 18.4016 12.2134 18.3556 12.2375C18.3096 12.2616 18.2593 12.2763 18.2075 12.2805C18.1557 12.2848 18.1036 12.2787 18.0543 12.2625C18.005 12.2462 17.9594 12.2203 17.9203 12.1861C17.8811 12.1519 17.8493 12.1103 17.8266 12.0636C17.8038 12.0168 17.7907 11.966 17.788 11.9142C17.388 7.18517 15.506 4.54017 13.197 3.43217C12.1918 2.95395 11.0824 2.7366 9.97102 2.80017C8.85133 2.86542 7.75809 3.16668 6.76302 3.68417C5.53343 4.2779 4.49073 5.19826 3.74894 6.34464C3.00715 7.49101 2.59482 8.81926 2.55702 10.1842C2.57249 10.7524 2.63943 11.318 2.75702 11.8742C3.01336 12.8387 3.02505 13.852 2.79102 14.8222C2.72596 15.0368 2.63353 15.2422 2.51602 15.4332C2.40491 15.6113 2.26848 15.7723 2.11102 15.9112L2.11202 15.9072ZM17.778 13.4662C17.778 13.3634 17.8188 13.2648 17.8915 13.1922C17.9642 13.1195 18.0628 13.0787 18.1655 13.0787C18.2683 13.0787 18.3669 13.1195 18.4395 13.1922C18.5122 13.2648 18.553 13.3634 18.553 13.4662V15.1102C18.553 15.2129 18.5122 15.3115 18.4395 15.3842C18.3669 15.4568 18.2683 15.4977 18.1655 15.4977C18.0628 15.4977 17.9642 15.4568 17.8915 15.3842C17.8188 15.3115 17.778 15.2129 17.778 15.1102V13.4712V13.4662ZM3.25702 17.5002C3.2192 17.5341 3.17503 17.5601 3.12707 17.5768C3.07911 17.5935 3.02832 17.6005 2.97764 17.5974C2.92695 17.5943 2.87738 17.5813 2.83178 17.5589C2.78619 17.5365 2.74549 17.5054 2.71202 17.4672C2.64406 17.3896 2.60942 17.2884 2.61559 17.1854C2.62177 17.0824 2.66827 16.9861 2.74502 16.9172C3.24096 16.4715 3.59876 15.893 3.77602 15.2502C3.99622 14.3965 4.04314 13.5073 3.91402 12.6352C3.69573 11.6268 3.65075 10.5886 3.78102 9.56517C3.90038 8.6481 4.22845 7.77061 4.74002 7.00017C4.76861 6.95822 4.80521 6.92233 4.84772 6.89457C4.89023 6.86682 4.93781 6.84774 4.98772 6.83845C5.03763 6.82915 5.08888 6.82982 5.13854 6.84042C5.18819 6.85101 5.23525 6.87132 5.27702 6.90017C5.36145 6.95934 5.41925 7.04932 5.43796 7.15071C5.45666 7.25209 5.43478 7.35677 5.37702 7.44217C4.93223 8.11439 4.6476 8.87968 4.54502 9.67917C4.42799 10.6129 4.47026 11.5596 4.67002 12.4792C4.67524 12.4985 4.67892 12.5182 4.68102 12.5382C4.82387 13.5166 4.76809 14.5138 4.51702 15.4702C4.29962 16.2533 3.86237 16.9578 3.25702 17.5002ZM7.19102 5.74417C7.14692 5.76981 7.09817 5.78643 7.04759 5.79306C6.99702 5.7997 6.94562 5.79621 6.89641 5.78281C6.84719 5.76942 6.80112 5.74637 6.76088 5.71502C6.72065 5.68366 6.68704 5.64463 6.66202 5.60017C6.61036 5.51102 6.59587 5.40512 6.6217 5.30537C6.64752 5.20562 6.71159 5.12005 6.80002 5.06717C7.60911 4.5959 8.51022 4.30444 9.44204 4.21264C10.3739 4.12084 11.3145 4.23084 12.2 4.53517C13.585 5.02745 14.7437 6.00665 15.46 7.29017C15.7391 7.78049 15.9608 8.30124 16.121 8.84217C16.381 9.73429 16.5485 10.6508 16.621 11.5772C16.7064 12.659 16.7114 13.7456 16.636 14.8282C16.6368 14.8392 16.6368 14.8502 16.636 14.8612L16.366 17.5522C16.3619 17.6035 16.3477 17.6535 16.324 17.6992C16.3004 17.745 16.2678 17.7855 16.2283 17.8185C16.1888 17.8515 16.1431 17.8763 16.0939 17.8914C16.0447 17.9065 15.993 17.9117 15.9417 17.9066C15.8905 17.9015 15.8408 17.8862 15.7956 17.8616C15.7503 17.837 15.7104 17.8037 15.6782 17.7635C15.6461 17.7233 15.6222 17.6771 15.6081 17.6276C15.594 17.5781 15.5899 17.5263 15.596 17.4752L15.866 14.7812C15.9381 13.7366 15.9331 12.6881 15.851 11.6442C15.785 10.7731 15.6291 9.91122 15.386 9.07217C15.2427 8.58844 15.0444 8.12273 14.795 7.68417C14.1706 6.56218 13.1594 5.7056 11.95 5.27417C10.8037 4.87476 9.55959 4.85303 8.40002 5.21217C7.9784 5.34375 7.57287 5.5222 7.19102 5.74417ZM6.34002 16.1222C6.33199 16.173 6.31392 16.2217 6.28686 16.2654C6.2598 16.3091 6.2243 16.347 6.18242 16.3769C6.14055 16.4067 6.09314 16.4279 6.04298 16.4393C5.99281 16.4506 5.94089 16.4518 5.89026 16.4428C5.83962 16.4339 5.79128 16.4149 5.74805 16.387C5.70483 16.3591 5.6676 16.3229 5.63853 16.2805C5.60946 16.2381 5.58914 16.1903 5.57875 16.1399C5.56836 16.0896 5.56811 16.0376 5.57802 15.9872C5.67137 15.4284 5.72417 14.8636 5.73602 14.2972C5.75402 13.6712 5.73602 12.9862 5.69702 12.2542C5.68902 12.0962 5.67402 11.9012 5.66102 11.7102C5.45222 10.4976 5.6509 9.24995 6.22602 8.16217C6.38509 7.87277 6.57922 7.60408 6.80402 7.36217C7.03888 7.1124 7.30353 6.89242 7.59202 6.70717C7.61079 6.69462 7.63092 6.68422 7.65202 6.67617C8.07289 6.46822 8.51427 6.30467 8.96902 6.18817C9.40637 6.07607 9.85807 6.03022 10.309 6.05217C10.4118 6.05813 10.508 6.10445 10.5767 6.18103C10.6454 6.25761 10.6811 6.35825 10.676 6.46102C10.6708 6.56379 10.6253 6.66037 10.5492 6.7297C10.4732 6.79903 10.3728 6.83551 10.27 6.83117C9.89285 6.81499 9.51537 6.85509 9.15002 6.95017C8.7499 7.05316 8.3615 7.19726 7.99102 7.38017C7.76228 7.52779 7.5524 7.70274 7.36602 7.90117C7.18506 8.09511 7.02887 8.31076 6.90102 8.54317C6.41123 9.5018 6.24661 10.5938 6.43202 11.6542C6.44302 11.8182 6.45502 11.9892 6.46802 12.2092C6.51002 12.9552 6.52502 13.6612 6.50702 14.3162C6.49363 14.921 6.43749 15.5242 6.33902 16.1212L6.34002 16.1222ZM11.79 7.31117C11.7026 7.25682 11.64 7.17023 11.6159 7.07012C11.5917 6.97001 11.6079 6.86442 11.661 6.77617C11.6871 6.73251 11.7216 6.69447 11.7625 6.66426C11.8034 6.63404 11.8499 6.61225 11.8993 6.60016C11.9487 6.58806 12.0001 6.5859 12.0503 6.5938C12.1005 6.6017 12.1487 6.6195 12.192 6.64617C12.311 6.72017 12.426 6.79917 12.539 6.88417C12.652 6.96917 12.759 7.06017 12.868 7.16017C14.343 8.51217 14.842 10.6852 14.875 12.9602C14.8558 15.0576 14.6015 17.1463 14.117 19.1872C14.1059 19.2367 14.0852 19.2835 14.056 19.325C14.0268 19.3665 13.9897 19.4018 13.9469 19.429C13.904 19.4562 13.8562 19.4746 13.8062 19.4833C13.7562 19.492 13.705 19.4908 13.6555 19.4797C13.606 19.4686 13.5592 19.4478 13.5177 19.4186C13.4762 19.3894 13.4409 19.3524 13.4137 19.3095C13.3865 19.2666 13.3681 19.2189 13.3594 19.1689C13.3507 19.1189 13.3519 19.0677 13.363 19.0182C13.8351 17.0355 14.0836 15.0062 14.104 12.9682C14.075 10.8882 13.635 8.91917 12.348 7.73817C12.258 7.65617 12.166 7.57917 12.073 7.50817C11.9834 7.43559 11.8892 7.36879 11.791 7.30817L11.79 7.31117ZM7.02302 19.6602C6.99406 19.702 6.95705 19.7377 6.91416 19.7652C6.87127 19.7926 6.82336 19.8113 6.7732 19.82C6.72304 19.8287 6.67164 19.8274 6.622 19.8161C6.57235 19.8048 6.52545 19.7838 6.48402 19.7542C6.39993 19.6941 6.34298 19.6032 6.32557 19.5013C6.30815 19.3994 6.33168 19.2948 6.39102 19.2102C6.66951 18.811 6.90198 18.3816 7.08402 17.9302C7.28052 17.4386 7.42661 16.9283 7.52002 16.4072C7.66248 15.2254 7.66684 14.031 7.53302 12.8482C7.50402 12.4322 7.47602 12.0272 7.45802 11.6092C7.41244 11.0246 7.43762 10.4367 7.53302 9.85817C7.62968 9.26248 7.95876 8.72947 8.44802 8.37617C8.56971 8.29037 8.6989 8.21573 8.83402 8.15317C8.9791 8.0856 9.12922 8.02943 9.28302 7.98517C9.40004 7.95033 9.51889 7.92195 9.63902 7.90017C9.97369 7.82857 10.3205 7.83651 10.6515 7.92335C10.9826 8.01019 11.2886 8.17351 11.545 8.40017C12.0203 8.85754 12.355 9.44107 12.51 10.0822C12.568 10.2903 12.6154 10.5012 12.652 10.7142C12.672 10.8322 12.689 10.9522 12.702 11.0722C12.715 11.1922 12.726 11.3122 12.735 11.4372C12.8087 12.8719 12.7626 14.3102 12.597 15.7372C12.4636 17.0886 12.2048 18.4247 11.824 19.7282C11.809 19.7768 11.7845 19.822 11.7519 19.8611C11.7194 19.9003 11.6795 19.9326 11.6344 19.9563C11.5894 19.98 11.5401 19.9945 11.4894 19.9992C11.4387 20.0038 11.3876 19.9983 11.339 19.9832C11.2412 19.9511 11.16 19.8818 11.1128 19.7903C11.0657 19.6988 11.0564 19.5924 11.087 19.4942C11.4514 18.2397 11.6988 16.9542 11.826 15.6542C11.9863 14.273 12.0314 12.8809 11.961 11.4922C11.954 11.3922 11.945 11.2802 11.932 11.1682C11.919 11.0562 11.904 10.9582 11.886 10.8542C11.853 10.6672 11.813 10.4832 11.764 10.3042C11.6496 9.808 11.3968 9.35446 11.035 8.99617C10.8632 8.84888 10.6594 8.74378 10.4397 8.68926C10.2201 8.63474 9.99076 8.63232 9.77002 8.68217C9.67789 8.69836 9.58675 8.71973 9.49702 8.74617C9.38143 8.77845 9.26871 8.82026 9.16002 8.87117C9.06674 8.91432 8.97741 8.96551 8.89302 9.02417C8.56909 9.26545 8.35348 9.62481 8.29302 10.0242C8.21254 10.5397 8.19241 11.0629 8.23302 11.5832C8.24902 11.9532 8.27902 12.3732 8.30802 12.8032C8.44814 14.0508 8.43941 15.3106 8.28202 16.5562C8.17831 17.1293 8.01682 17.6905 7.80002 18.2312C7.59601 18.7352 7.33569 19.2146 7.02402 19.6602H7.02302ZM9.67402 10.2092C9.66483 10.1593 9.66556 10.108 9.67616 10.0584C9.68676 10.0088 9.70704 9.96176 9.73582 9.91997C9.76461 9.87819 9.80134 9.84248 9.84393 9.81489C9.88652 9.7873 9.93412 9.76837 9.98402 9.75917C10.0339 9.74998 10.0851 9.75071 10.1348 9.76131C10.1844 9.77192 10.2314 9.79219 10.2732 9.82098C10.315 9.84976 10.3507 9.8865 10.3783 9.92908C10.4059 9.97167 10.4248 10.0193 10.434 10.0692C10.6289 11.1385 10.7277 12.2232 10.729 13.3102C10.7294 14.4014 10.6455 15.4909 10.478 16.5692C10.4701 16.6193 10.4525 16.6673 10.426 16.7106C10.3996 16.7539 10.3649 16.7915 10.3239 16.8214C10.2829 16.8512 10.2364 16.8727 10.1871 16.8846C10.1378 16.8965 10.0866 16.8986 10.0365 16.8907C9.98642 16.8828 9.93837 16.8651 9.8951 16.8387C9.85183 16.8122 9.81419 16.7775 9.78434 16.7365C9.72404 16.6537 9.69911 16.5504 9.71502 16.4492C9.87742 15.4107 9.95867 14.3612 9.95802 13.3102C9.95641 12.2705 9.86169 11.233 9.67502 10.2102L9.67402 10.2092ZM9.23102 17.7912C9.24212 17.7417 9.26286 17.6948 9.29206 17.6533C9.32125 17.6118 9.35834 17.5765 9.40119 17.5493C9.44405 17.5222 9.49183 17.5037 9.54182 17.495C9.5918 17.4863 9.64301 17.4876 9.69252 17.4987C9.74203 17.5098 9.78887 17.5305 9.83036 17.5597C9.87186 17.5889 9.90719 17.626 9.93435 17.6688C9.96151 17.7117 9.97997 17.7595 9.98866 17.8095C9.99736 17.8595 9.99612 17.9107 9.98502 17.9602L9.64702 19.5002C9.63593 19.5497 9.61519 19.5965 9.58599 19.638C9.55679 19.6795 9.51971 19.7148 9.47685 19.742C9.434 19.7692 9.38621 19.7876 9.33623 19.7963C9.28624 19.805 9.23503 19.8038 9.18552 19.7927C9.13601 19.7816 9.08918 19.7608 9.04768 19.7316C9.00619 19.7024 8.97085 19.6654 8.94369 19.6225C8.91653 19.5796 8.89808 19.5319 8.88938 19.4819C8.88069 19.4319 8.88193 19.3807 8.89302 19.3312L9.23202 17.7922L9.23102 17.7912Z" fill="#272D55"/>
</svg>
